<mxfile host="app.diagrams.net" modified="2024-04-28T20:41:22.658Z" agent="Mozilla/5.0 (Windows NT 10.0; Win64; x64) AppleWebKit/537.36 (KHTML, like Gecko) Chrome/121.0.0.0 Safari/537.36 Edg/121.0.0.0" version="24.3.1" etag="1a5gEYP9vDJlKv7dDPJq" type="github">
  <diagram name="Page-1" id="EBaKJ3iDKFJ7CM3dKeu2">
    <mxGraphModel>
      <root>
        <mxCell id="0" />
        <mxCell id="1" parent="0" />
      </root>
    </mxGraphModel>
  </diagram>
</mxfile>
